<svg width="141" height="24" viewBox="0 0 141 24" fill="none" xmlns="http://www.w3.org/2000/svg">
<path d="M14.584 11.48C15.8853 11.7573 16.9307 12.408 17.72 13.432C18.5093 14.4347 18.904 15.5867 18.904 16.888C18.904 18.7653 18.2427 20.2587 16.92 21.368C15.6187 22.456 13.7947 23 11.448 23H0.984V0.535999H11.096C13.3787 0.535999 15.16 1.05867 16.44 2.104C17.7413 3.14933 18.392 4.568 18.392 6.36C18.392 7.68267 18.04 8.78133 17.336 9.656C16.6533 10.5307 15.736 11.1387 14.584 11.48ZM6.456 9.624H10.04C10.936 9.624 11.6187 9.432 12.088 9.048C12.5787 8.64267 12.824 8.056 12.824 7.288C12.824 6.52 12.5787 5.93333 12.088 5.528C11.6187 5.12267 10.936 4.92 10.04 4.92H6.456V9.624ZM10.488 18.584C11.4053 18.584 12.1093 18.3813 12.6 17.976C13.112 17.5493 13.368 16.9413 13.368 16.152C13.368 15.3627 13.1013 14.744 12.568 14.296C12.056 13.848 11.3413 13.624 10.424 13.624H6.456V18.584H10.488ZM38.9097 13.784C38.9097 14.296 38.8778 14.8293 38.8138 15.384H26.4298C26.5151 16.4933 26.8671 17.3467 27.4858 17.944C28.1258 18.52 28.9044 18.808 29.8218 18.808C31.1871 18.808 32.1364 18.232 32.6698 17.08H38.4938C38.1951 18.2533 37.6511 19.3093 36.8618 20.248C36.0938 21.1867 35.1231 21.9227 33.9498 22.456C32.7764 22.9893 31.4644 23.256 30.0138 23.256C28.2644 23.256 26.7071 22.8827 25.3418 22.136C23.9764 21.3893 22.9098 20.3227 22.1418 18.936C21.3738 17.5493 20.9898 15.928 20.9898 14.072C20.9898 12.216 21.3631 10.5947 22.1098 9.208C22.8778 7.82133 23.9444 6.75467 25.3098 6.008C26.6751 5.26133 28.2431 4.888 30.0138 4.888C31.7418 4.888 33.2778 5.25067 34.6218 5.976C35.9658 6.70133 37.0111 7.736 37.7578 9.08C38.5258 10.424 38.9097 11.992 38.9097 13.784ZM33.3098 12.344C33.3098 11.4053 32.9898 10.6587 32.3498 10.104C31.7098 9.54933 30.9098 9.272 29.9498 9.272C29.0324 9.272 28.2538 9.53867 27.6138 10.072C26.9951 10.6053 26.6111 11.3627 26.4618 12.344H33.3098Z" fill="#223322" fill-opacity="0.96"/>
<path d="M49.9245 23.224C48.2818 23.224 46.8098 22.9573 45.5085 22.424C44.2072 21.8907 43.1618 21.1013 42.3725 20.056C41.6045 19.0107 41.1992 17.752 41.1565 16.28H46.9805C47.0658 17.112 47.3538 17.752 47.8445 18.2C48.3352 18.6267 48.9752 18.84 49.7645 18.84C50.5752 18.84 51.2152 18.6587 51.6845 18.296C52.1538 17.912 52.3885 17.3893 52.3885 16.728C52.3885 16.1733 52.1965 15.7147 51.8125 15.352C51.4498 14.9893 50.9912 14.6907 50.4365 14.456C49.9032 14.2213 49.1352 13.9547 48.1325 13.656C46.6818 13.208 45.4978 12.76 44.5805 12.312C43.6632 11.864 42.8738 11.2027 42.2125 10.328C41.5512 9.45333 41.2205 8.312 41.2205 6.904C41.2205 4.81333 41.9778 3.18133 43.4925 2.008C45.0072 0.813333 46.9805 0.216 49.4125 0.216C51.8872 0.216 53.8818 0.813333 55.3965 2.008C56.9112 3.18133 57.7218 4.824 57.8285 6.936H51.9085C51.8658 6.21067 51.5992 5.64533 51.1085 5.24C50.6178 4.81333 49.9885 4.6 49.2205 4.6C48.5592 4.6 48.0258 4.78133 47.6205 5.144C47.2152 5.48533 47.0125 5.98667 47.0125 6.648C47.0125 7.37333 47.3538 7.93867 48.0365 8.344C48.7192 8.74933 49.7858 9.18667 51.2365 9.656C52.6872 10.1467 53.8605 10.616 54.7565 11.064C55.6738 11.512 56.4632 12.1627 57.1245 13.016C57.7858 13.8693 58.1165 14.968 58.1165 16.312C58.1165 17.592 57.7858 18.7547 57.1245 19.8C56.4845 20.8453 55.5458 21.6773 54.3085 22.296C53.0712 22.9147 51.6098 23.224 49.9245 23.224ZM84.268 4.952C86.4867 4.952 88.2467 5.624 89.548 6.968C90.8707 8.312 91.532 10.1787 91.532 12.568V23H86.092V13.304C86.092 12.152 85.7827 11.2667 85.164 10.648C84.5667 10.008 83.7347 9.688 82.668 9.688C81.6013 9.688 80.7587 10.008 80.14 10.648C79.5427 11.2667 79.244 12.152 79.244 13.304V23H73.804V13.304C73.804 12.152 73.4947 11.2667 72.876 10.648C72.2787 10.008 71.4467 9.688 70.38 9.688C69.3133 9.688 68.4707 10.008 67.852 10.648C67.2547 11.2667 66.956 12.152 66.956 13.304V23H61.484V5.144H66.956V7.384C67.5107 6.63733 68.236 6.05067 69.132 5.624C70.028 5.176 71.0413 4.952 72.172 4.952C73.516 4.952 74.7107 5.24 75.756 5.816C76.8227 6.392 77.6547 7.21333 78.252 8.28C78.8707 7.29867 79.7133 6.49867 80.78 5.88C81.8467 5.26133 83.0093 4.952 84.268 4.952ZM94.271 14.04C94.271 12.2053 94.6123 10.5947 95.295 9.208C95.999 7.82133 96.9483 6.75467 98.143 6.008C99.3377 5.26133 100.671 4.888 102.143 4.888C103.402 4.888 104.5 5.144 105.439 5.656C106.399 6.168 107.135 6.84 107.647 7.672V5.144H113.119V23H107.647V20.472C107.114 21.304 106.367 21.976 105.407 22.488C104.468 23 103.37 23.256 102.111 23.256C100.66 23.256 99.3377 22.8827 98.143 22.136C96.9483 21.368 95.999 20.2907 95.295 18.904C94.6123 17.496 94.271 15.8747 94.271 14.04ZM107.647 14.072C107.647 12.7067 107.263 11.6293 106.495 10.84C105.748 10.0507 104.831 9.656 103.743 9.656C102.655 9.656 101.727 10.0507 100.959 10.84C100.212 11.608 99.839 12.6747 99.839 14.04C99.839 15.4053 100.212 16.4933 100.959 17.304C101.727 18.0933 102.655 18.488 103.743 18.488C104.831 18.488 105.748 18.0933 106.495 17.304C107.263 16.5147 107.647 15.4373 107.647 14.072ZM122.55 8.12C123.19 7.13867 123.99 6.37067 124.95 5.816C125.91 5.24 126.976 4.952 128.15 4.952V10.744H126.646C125.28 10.744 124.256 11.0427 123.574 11.64C122.891 12.216 122.55 13.24 122.55 14.712V23H117.078V5.144H122.55V8.12ZM140.717 18.36V23H137.933C135.949 23 134.403 22.52 133.293 21.56C132.184 20.5787 131.629 18.9893 131.629 16.792V9.688H129.453V5.144H131.629V0.792H137.101V5.144H140.685V9.688H137.101V16.856C137.101 17.3893 137.229 17.7733 137.485 18.008C137.741 18.2427 138.168 18.36 138.765 18.36H140.717Z" fill="#2C668C"/>
</svg>
